HIERARCHY
ROOT Hips
{
	OFFSET -0.142555 90.271300 1.762720
	CHANNELS 6 Xposition Yposition Zposition Zrotation Yrotation Xrotation 
	JOINT Spine
	{
		OFFSET 0.000000 9.923500 -1.227300
		CHANNELS 3 Zrotation Yrotation Xrotation
		JOINT Spine1
		{
			OFFSET -0.000100 11.645400 -1.422300
			CHANNELS 3 Zrotation Yrotation Xrotation
			JOINT Spine2
			{
				OFFSET 0.000100 13.360200 -1.626500
				CHANNELS 3 Zrotation Yrotation Xrotation
				JOINT Neck
				{
					OFFSET 0.000000 15.032500 0.792900
					CHANNELS 3 Zrotation Yrotation Xrotation
					JOINT Head
					{
						OFFSET 0.000000 10.321800 3.142400
						CHANNELS 3 Zrotation Yrotation Xrotation
						JOINT HeadTop_End
						{
							OFFSET 0.000200 18.474700 6.636400
							CHANNELS 3 Zrotation Yrotation Xrotation
							End Site
							{
								OFFSET 0.000000 0.000000 0.000000
							}
						}
						JOINT LeftEye
						{
							OFFSET 2.947900 7.681700 9.120700
							CHANNELS 3 Zrotation Yrotation Xrotation
							End Site
							{
								OFFSET 0.000000 0.000000 0.000000
							}
						}
						JOINT RightEye
						{
							OFFSET -2.944500 7.681700 9.120500
							CHANNELS 3 Zrotation Yrotation Xrotation
							End Site
							{
								OFFSET 0.000000 0.000000 0.000000
							}
						}
					}
				}
				JOINT LeftShoulder
				{
					OFFSET 6.105800 9.110400 0.705600
					CHANNELS 3 Zrotation Yrotation Xrotation
					JOINT LeftArm
					{
						OFFSET 12.655000 -0.265900 -2.600900
						CHANNELS 3 Zrotation Yrotation Xrotation
						JOINT LeftForeArm
						{
							OFFSET 27.404700 0.000000 0.000000
							CHANNELS 3 Zrotation Yrotation Xrotation
							JOINT LeftHand
							{
								OFFSET 27.614500 0.000000 0.000000
								CHANNELS 3 Zrotation Yrotation Xrotation
								JOINT LeftHandMiddle1
								{
									OFFSET 12.775500 0.000000 0.000000
									CHANNELS 3 Zrotation Yrotation Xrotation
									JOINT LeftHandMiddle2
									{
										OFFSET 3.614000 0.000000 0.000000
										CHANNELS 3 Zrotation Yrotation Xrotation
										JOINT LeftHandMiddle3
										{
											OFFSET 3.459800 0.000000 0.000000
											CHANNELS 3 Zrotation Yrotation Xrotation
											End Site
											{
												OFFSET 0.000000 0.000000 0.000000
											}
										}
									}
								}
								JOINT LeftHandThumb1
								{
									OFFSET 3.788800 -2.167000 3.003100
									CHANNELS 3 Zrotation Yrotation Xrotation
									JOINT LeftHandThumb2
									{
										OFFSET 3.675400 -2.122000 2.122000
										CHANNELS 3 Zrotation Yrotation Xrotation
										JOINT LeftHandThumb3
										{
											OFFSET 3.394400 -1.959700 1.959800
											CHANNELS 3 Zrotation Yrotation Xrotation
											End Site
											{
												OFFSET 0.000000 0.000000 0.000000
											}
										}
									}
								}
								JOINT LeftHandIndex1
								{
									OFFSET 12.266600 -0.231700 2.822100
									CHANNELS 3 Zrotation Yrotation Xrotation
									JOINT LeftHandIndex2
									{
										OFFSET 3.892000 0.000000 0.000000
										CHANNELS 3 Zrotation Yrotation Xrotation
										JOINT LeftHandIndex3
										{
											OFFSET 3.415200 0.000000 0.000000
											CHANNELS 3 Zrotation Yrotation Xrotation
											End Site
											{
												OFFSET 0.000000 0.000000 0.000000
											}
										}
									}
								}
								JOINT LeftHandRing1
								{
									OFFSET 12.147000 0.009900 -2.216600
									CHANNELS 3 Zrotation Yrotation Xrotation
									JOINT LeftHandRing2
									{
										OFFSET 3.601200 0.000000 0.000000
										CHANNELS 3 Zrotation Yrotation Xrotation
										JOINT LeftHandRing3
										{
											OFFSET 3.307300 0.000000 0.000000
											CHANNELS 3 Zrotation Yrotation Xrotation
											End Site
											{
												OFFSET 0.000000 0.000000 0.000000
											}
										}
									}
								}
								JOINT LeftHandPinky1
								{
									OFFSET 10.908200 -0.226400 -4.725800
									CHANNELS 3 Zrotation Yrotation Xrotation
									JOINT LeftHandPinky2
									{
										OFFSET 4.136700 0.000000 0.000000
										CHANNELS 3 Zrotation Yrotation Xrotation
										JOINT LeftHandPinky3
										{
											OFFSET 2.594800 0.000000 0.000000
											CHANNELS 3 Zrotation Yrotation Xrotation
											End Site
											{
												OFFSET 0.000000 0.000000 0.000000
											}
										}
									}
								}
							}
						}
					}
				}
				JOINT RightShoulder
				{
					OFFSET -6.105700 9.110500 0.705600
					CHANNELS 3 Zrotation Yrotation Xrotation
					JOINT RightArm
					{
						OFFSET -12.655000 -0.266000 -2.600900
						CHANNELS 3 Zrotation Yrotation Xrotation
						JOINT RightForeArm
						{
							OFFSET -27.404700 0.000000 0.000000
							CHANNELS 3 Zrotation Yrotation Xrotation
							JOINT RightHand
							{
								OFFSET -27.614500 0.000000 0.000000
								CHANNELS 3 Zrotation Yrotation Xrotation
								JOINT RightHandMiddle1
								{
									OFFSET -12.775500 0.000000 0.000000
									CHANNELS 3 Zrotation Yrotation Xrotation
									JOINT RightHandMiddle2
									{
										OFFSET -3.614000 0.000000 0.000000
										CHANNELS 3 Zrotation Yrotation Xrotation
										JOINT RightHandMiddle3
										{
											OFFSET -3.459800 0.000000 0.000000
											CHANNELS 3 Zrotation Yrotation Xrotation
											End Site
											{
												OFFSET 0.000000 0.000000 0.000000
											}
										}
									}
								}
								JOINT RightHandThumb1
								{
									OFFSET -3.788800 -2.167000 3.003100
									CHANNELS 3 Zrotation Yrotation Xrotation
									JOINT RightHandThumb2
									{
										OFFSET -3.675400 -2.122000 2.122000
										CHANNELS 3 Zrotation Yrotation Xrotation
										JOINT RightHandThumb3
										{
											OFFSET -3.394400 -1.959700 1.959800
											CHANNELS 3 Zrotation Yrotation Xrotation
											End Site
											{
												OFFSET 0.000000 0.000000 0.000000
											}
										}
									}
								}
								JOINT RightHandIndex1
								{
									OFFSET -12.266600 -0.231700 2.822100
									CHANNELS 3 Zrotation Yrotation Xrotation
									JOINT RightHandIndex2
									{
										OFFSET -3.892000 0.000000 0.000000
										CHANNELS 3 Zrotation Yrotation Xrotation
										JOINT RightHandIndex3
										{
											OFFSET -3.415200 0.000000 0.000000
											CHANNELS 3 Zrotation Yrotation Xrotation
											End Site
											{
												OFFSET 0.000000 0.000000 0.000000
											}
										}
									}
								}
								JOINT RightHandRing1
								{
									OFFSET -12.147000 0.009900 -2.216600
									CHANNELS 3 Zrotation Yrotation Xrotation
									JOINT RightHandRing2
									{
										OFFSET -3.601200 0.000000 0.000000
										CHANNELS 3 Zrotation Yrotation Xrotation
										JOINT RightHandRing3
										{
											OFFSET -3.307300 0.000000 0.000000
											CHANNELS 3 Zrotation Yrotation Xrotation
											End Site
											{
												OFFSET 0.000000 0.000000 0.000000
											}
										}
									}
								}
								JOINT RightHandPinky1
								{
									OFFSET -10.908200 -0.226400 -4.725800
									CHANNELS 3 Zrotation Yrotation Xrotation
									JOINT RightHandPinky2
									{
										OFFSET -4.136700 0.000000 0.000000
										CHANNELS 3 Zrotation Yrotation Xrotation
										JOINT RightHandPinky3
										{
											OFFSET -2.594800 0.000000 0.000000
											CHANNELS 3 Zrotation Yrotation Xrotation
											End Site
											{
												OFFSET 0.000000 0.000000 0.000000
											}
										}
									}
								}
							}
						}
					}
				}
			}
		}
	}
	JOINT RightUpLeg
	{
		OFFSET -9.124500 -6.656400 -0.055400
		CHANNELS 3 Zrotation Yrotation Xrotation
		JOINT RightLeg
		{
			OFFSET -0.244700 -40.595400 -0.514500
			CHANNELS 3 Zrotation Yrotation Xrotation
			JOINT RightFoot
			{
				OFFSET 0.244700 -42.047900 -2.060200
				CHANNELS 3 Zrotation Yrotation Xrotation
				JOINT RightToeBase
				{
					OFFSET -0.373400 -10.492200 12.640700
					CHANNELS 3 Zrotation Yrotation Xrotation
					End Site
					{
						OFFSET 0.000000 0.000000 0.000000
					}
				}
			}
		}
	}
	JOINT LeftUpLeg
	{
		OFFSET 9.124500 -6.656400 -0.055400
		CHANNELS 3 Zrotation Yrotation Xrotation
		JOINT LeftLeg
		{
			OFFSET 0.244700 -40.595400 -0.517000
			CHANNELS 3 Zrotation Yrotation Xrotation
			JOINT LeftFoot
			{
				OFFSET -0.244700 -42.048000 -2.057600
				CHANNELS 3 Zrotation Yrotation Xrotation
				JOINT LeftToeBase
				{
					OFFSET 0.373400 -10.492200 12.640700
					CHANNELS 3 Zrotation Yrotation Xrotation
					End Site
					{
						OFFSET 0.000000 0.000000 0.000000
					}
				}
			}
		}
	}
}
MOTION
Frames: 5
Frame Time: 0.016667
-0.142555 90.271300 1.762720 -5.357003 -5.381037 31.908988 -3.731406 -2.254995 14.166800 -2.097015 -1.440772 10.443239 -2.107136 -1.317184 10.454293 0.177503 1.293607 -13.120504 3.585729 8.024701 -35.423680 -0.000000 -0.000000 -0.000000 -0.000000 -0.000000 -0.000000 -0.000000 -0.000000 -0.000000 -12.485230 -11.130162 2.860506 -49.273375 -28.216056 -11.964595 -0.000035 -68.162100 0.000021 17.637688 -21.452743 28.604364 -38.511397 2.688457 -2.686379 -75.229487 5.656115 -4.359526 -75.229385 5.656085 -4.359526 -4.348363 2.651288 -5.956649 4.894888 20.386749 8.349188 17.702848 21.045669 1.888087 -42.566565 -2.572555 12.103382 -75.465862 5.662172 -4.382856 -75.251952 5.656696 -4.361751 -51.466501 9.224621 -4.004734 -75.335328 5.658818 -4.369967 -75.212996 5.655668 -4.357935 -76.808359 14.184728 -19.523239 -75.250535 5.656637 -4.361630 -75.250536 5.656657 -4.361620 11.546861 5.848453 1.748876 59.755854 0.710872 -18.049337 -0.000009 39.997900 0.000001 9.578330 7.786167 -12.386181 51.694515 -5.102987 -3.527087 94.504261 -4.639887 -5.019311 56.686602 -3.892002 -2.099985 8.956688 7.877935 7.214263 -9.700594 -32.556398 12.473044 -25.782080 -38.121731 14.384839 59.379227 -2.075405 0.576356 94.504361 -4.639887 -5.019311 56.686602 -3.892002 -2.099985 54.664605 -7.021058 -3.792208 94.557483 -4.639548 -5.023623 56.675031 -3.891485 -2.099212 60.891551 -10.784864 -13.138613 94.504260 -4.639877 -5.019311 94.504262 -4.639887 -5.019321 -2.217607 -8.349944 -66.366468 -8.819023 -4.538159 66.943642 2.250541 -2.274420 -9.217375 -0.000001 0.000004 -11.318300 -8.043277 8.839551 -59.922095 -1.029017 -7.639615 52.565607 -4.087331 19.323619 -26.650595 -0.000077 0.000008 -0.000153 
-0.071995 91.472600 5.898440 -6.333485 -6.061536 31.450116 -3.142587 -2.391099 13.289282 -1.980332 -1.537467 9.240246 -1.974513 -1.428938 9.138266 0.258119 1.500150 -12.758747 5.172630 7.992755 -30.558470 0.000000 0.000000 0.000000 0.000000 0.000000 0.000000 0.000000 0.000000 0.000000 -12.680351 -10.884308 2.743623 -51.864428 -23.598458 -9.636589 -0.000004 -65.625300 -0.000016 14.169920 -18.895493 31.181501 -38.229166 2.661445 -2.659180 -74.874018 5.646792 -4.324545 -74.918846 5.647996 -4.328956 -4.348363 2.651288 -5.956649 4.894888 20.386749 8.349188 17.702848 21.045669 1.888087 -42.217052 -2.629083 12.140473 -75.061923 5.651750 -4.343032 -74.897185 5.647373 -4.326800 -51.227079 9.243280 -3.979261 -74.979762 5.649617 -4.334957 -74.938876 5.648490 -4.330909 -76.603679 14.247077 -19.475402 -74.976217 5.649500 -4.334594 -75.006475 5.650305 -4.337595 11.141680 5.859177 1.765446 57.372404 -0.536998 -20.005316 -0.000004 39.765300 0.000002 8.887731 8.056319 -14.673518 51.386602 -5.096897 -3.499736 93.952407 -4.643181 -4.974657 56.194243 -3.869939 -2.066664 8.775354 7.889115 7.030450 -9.700594 -32.556398 12.473044 -25.782080 -38.121731 14.384839 59.032401 -2.043642 0.588827 93.882880 -4.643559 -4.969011 56.135882 -3.867300 -2.062729 54.390302 -7.029059 -3.767557 94.063989 -4.642550 -4.983682 56.232279 -3.871661 -2.069234 60.646264 -10.820696 -13.092618 94.060668 -4.642571 -4.983412 94.103126 -4.642308 -4.986851 -0.658625 -7.276916 -64.782603 -2.701941 -2.349952 60.008682 4.691791 -8.089823 -6.875678 -0.000002 -0.000032 -5.936440 -6.740341 10.068252 -54.655642 -0.500248 -7.540643 48.893382 -4.183242 17.648785 -27.481445 0.000024 0.000013 -0.136319 
0.004453 92.719600 10.527100 -7.404078 -6.786687 30.695743 -2.432044 -2.380152 12.291970 -1.716993 -1.707937 8.011342 -1.672910 -1.622942 7.898939 0.474243 1.666678 -11.801765 6.030508 8.238785 -24.722463 0.000000 -0.000000 0.000000 0.000000 -0.000000 0.000000 0.000000 -0.000000 0.000000 -13.202032 -10.273117 2.615325 -53.371092 -19.010879 -8.234544 -0.000031 -62.095200 0.000019 10.452705 -16.381964 33.746991 -37.421359 2.583708 -2.581706 -73.853153 5.618902 -4.224324 -74.024461 5.623697 -4.241130 -4.348363 2.651288 -5.956649 4.894888 20.386749 8.349188 17.702848 21.045669 1.888087 -41.220711 -2.791942 12.245761 -73.907587 5.620409 -4.229640 -73.878147 5.619612 -4.226781 -50.539330 9.295774 -3.906226 -73.958589 5.621869 -4.234665 -74.147197 5.627101 -4.253153 -76.013296 14.425349 -19.336146 -74.183931 5.628152 -4.256758 -74.300293 5.631340 -4.268177 10.066990 5.956337 1.797900 54.622690 -2.192907 -21.247414 0.000029 39.714700 0.000002 8.085722 7.926251 -17.166819 50.516343 -5.078833 -3.422543 92.386957 -4.650179 -4.847826 54.792994 -3.805609 -1.972872 8.265348 7.918579 6.512493 -9.700594 -32.556398 12.473044 -25.782080 -38.121731 14.384839 58.056563 -1.953845 0.622864 92.126803 -4.651001 -4.826721 54.573577 -3.795329 -1.958327 53.612318 -7.050809 -3.697742 92.659278 -4.649210 -4.869912 54.968653 -3.813798 -1.984547 59.947833 -10.921608 -12.960931 92.794124 -4.648686 -4.880825 92.954934 -4.648048 -4.893864 0.866964 -5.887252 -62.732412 -4.391895 -4.429081 51.089387 6.942052 -5.712341 -1.877808 0.000001 0.000007 -5.004410 -5.127996 11.579384 -51.030698 0.055624 -7.070275 49.237659 -3.693966 13.179144 -23.028229 0.712296 0.094062 -9.221853 
0.042840 93.980300 15.510900 -8.302882 -7.494453 29.702317 -1.736475 -2.278888 11.243108 -1.352411 -1.904266 6.830990 -1.258655 -1.840564 6.775422 0.771089 1.785916 -10.441929 6.251464 8.653591 -18.350211 0.000000 0.000000 0.000000 0.000000 0.000000 0.000000 0.000000 0.000000 0.000000 -13.890766 -9.490197 2.486765 -54.732238 -12.279832 -7.751749 -0.000022 -58.057500 0.000019 7.062952 -14.946355 36.599764 -36.146484 2.460012 -2.460719 -72.235343 5.571037 -4.066600 -72.601919 5.582263 -4.102218 -4.348363 2.651288 -5.956649 4.894888 20.386749 8.349188 17.702848 21.045669 1.888087 -39.658948 -3.050851 12.409368 -72.084787 5.566359 -4.051989 -72.262863 5.571877 -4.069269 -49.448865 9.375836 -3.790966 -72.340269 5.574279 -4.076811 -72.884217 5.590769 -4.129698 -75.072067 14.705639 -19.111064 -72.920136 5.591822 -4.133203 -73.170564 5.599230 -4.157622 8.535491 6.238365 1.820413 52.494745 -4.108294 -22.172386 0.000004 40.105600 0.000023 6.647995 7.058253 -19.427267 49.164196 -5.048472 -3.303199 89.942898 -4.654191 -4.649565 52.596783 -3.700209 -1.829104 7.478170 7.958250 5.709891 -9.700594 -32.556398 12.473044 -25.782080 -38.121731 14.384839 56.548713 -1.813985 0.672438 89.397866 -4.653942 -4.605337 52.135349 -3.677361 -1.799416 52.397670 -7.082004 -3.589098 90.457397 -4.654055 -4.691313 52.980997 -3.719038 -1.853966 58.852215 -11.076672 -12.751842 90.801453 -4.653749 -4.719233 91.142776 -4.653285 -4.746922 1.890808 -4.718915 -59.363254 -5.180916 -6.667854 42.608364 9.738813 -4.224715 1.940495 -0.000001 -0.000003 -3.624500 -3.632196 13.067145 -46.686136 0.574261 -6.676366 48.747272 -2.502871 8.465090 -17.227549 0.000004 -0.000001 -15.896600 
0.029895 95.225900 20.415100 -8.883827 -8.131418 28.240041 -1.093739 -2.105846 9.988985 -0.934568 -2.085208 5.724483 -0.791055 -2.031086 5.744911 1.090043 1.854745 -8.872106 5.886556 9.095292 -11.628509 -0.000000 -0.000000 0.000000 -0.000000 -0.000000 0.000000 -0.000000 -0.000000 0.000000 -14.582513 -8.728257 2.357952 -55.662017 -6.678149 -8.582315 -0.000058 -53.708900 0.000038 2.935591 -15.045469 40.170077 -34.463388 2.294816 -2.303568 -70.089023 5.500733 -3.859520 -70.707072 5.521739 -3.918883 -4.348363 2.651288 -5.956649 4.894888 20.386749 8.349188 17.702848 21.045669 1.888087 -37.612914 -3.396106 12.620628 -69.676158 5.486309 -3.819985 -70.119674 5.501762 -3.862440 -48.001000 9.476023 -3.639052 -70.193428 5.504311 -3.869529 -71.195842 5.537939 -3.965971 -73.814200 15.072437 -18.804470 -71.230647 5.539064 -3.969344 -71.655796 5.552825 -4.010470 6.761378 6.802508 1.806693 50.660274 -6.081767 -22.862000 0.000026 40.995600 0.000007 4.888737 6.253260 -21.198357 47.410747 -5.004937 -3.149551 86.755626 -4.646770 -4.391081 49.719927 -3.553915 -1.647078 6.465651 7.998851 4.671933 -9.700594 -32.556398 12.473044 -25.782080 -38.121731 14.384839 54.605685 -1.631897 0.730859 85.858456 -4.642101 -4.318443 48.956482 -3.513573 -1.600008 50.813449 -7.117574 -3.448103 87.571972 -4.650036 -4.457251 50.366213 -3.587578 -1.687318 57.414714 -11.273799 -12.473243 88.179534 -4.651857 -4.506516 88.749604 -4.653097 -4.552737 2.355473 -4.051473 -55.251880 -5.005318 -8.100164 36.016272 12.890871 -3.918025 3.999553 -0.000000 -0.000009 -2.920180 -2.505303 14.353413 -42.221383 0.937652 -6.410703 47.855688 -1.650922 5.534441 -9.175489 0.076733 0.035562 -25.194105 
